<svg xmlns="http://www.w3.org/2000/svg" xmlns:xlink="http://www.w3.org/1999/xlink" width="5000" zoomAndPan="magnify" viewBox="0 0 3750 2624.999883" height="3500" preserveAspectRatio="xMidYMid meet" version="1.0"><defs><clipPath id="cf340004d2"><path d="M 470 401 L 2860 401 L 2860 2510.1875 L 470 2510.1875 Z M 470 401 " clip-rule="nonzero"/></clipPath><clipPath id="d323182195"><path d="M 2852.570312 1612.546875 C 2845.105469 1601.101562 2832.164062 1594.632812 2818.726562 1594.632812 C 2817.730469 1594.632812 2816.734375 1594.632812 2815.742188 1594.632812 C 2725.160156 1594.136719 2646.027344 1477.699219 2623.628906 1324.941406 C 2623.628906 1323.945312 2623.132812 1322.953125 2623.132812 1321.957031 C 2622.136719 1314.492188 2621.140625 1306.53125 2620.144531 1298.570312 C 2619.648438 1295.085938 2619.148438 1291.105469 2619.148438 1287.625 C 2618.652344 1284.636719 2618.652344 1281.652344 2618.652344 1278.667969 C 2618.15625 1274.1875 2618.15625 1269.710938 2617.65625 1264.734375 C 2617.65625 1262.246094 2617.65625 1259.757812 2617.160156 1257.269531 C 2617.160156 1250.304688 2616.660156 1242.839844 2616.660156 1235.875 C 2616.660156 1184.125 2623.132812 1133.871094 2635.574219 1086.597656 C 2638.558594 1074.65625 2636.070312 1061.222656 2628.109375 1051.769531 C 2620.144531 1041.816406 2608.199219 1036.34375 2595.757812 1036.839844 C 2589.289062 1036.839844 2583.316406 1037.339844 2577.34375 1037.339844 C 2571.867188 1037.339844 2566.394531 1037.339844 2561.417969 1036.839844 C 2559.925781 1036.839844 2557.933594 1036.839844 2556.441406 1036.839844 C 2552.957031 1036.839844 2548.976562 1036.34375 2545.492188 1036.34375 C 2543.5 1036.34375 2541.507812 1036.34375 2539.519531 1035.84375 C 2536.035156 1035.347656 2532.550781 1035.347656 2529.066406 1034.851562 C 2527.074219 1034.851562 2525.582031 1034.351562 2523.59375 1034.351562 C 2519.113281 1033.855469 2515.132812 1033.359375 2510.652344 1032.859375 C 2509.160156 1032.859375 2507.664062 1032.363281 2506.171875 1032.363281 C 2501.691406 1031.863281 2497.710938 1031.367188 2493.234375 1030.371094 C 2490.742188 1029.875 2488.253906 1029.375 2486.265625 1028.878906 C 2483.777344 1028.382812 2481.289062 1027.882812 2478.800781 1027.386719 C 2475.8125 1026.890625 2473.324219 1026.390625 2470.339844 1025.894531 C 2468.347656 1025.394531 2466.355469 1024.898438 2464.367188 1024.402344 C 2461.378906 1023.902344 2457.894531 1022.90625 2454.910156 1022.410156 C 2453.914062 1022.410156 2453.417969 1021.914062 2452.421875 1021.914062 C 2422.558594 1014.449219 2394.191406 1004 2367.8125 991.0625 C 2367.316406 991.0625 2367.316406 991.0625 2366.816406 990.566406 C 2352.382812 983.597656 2338.945312 975.636719 2326.007812 967.179688 C 2262.300781 924.882812 2224.972656 869.652344 2219.996094 810.9375 C 2219 798.496094 2212.035156 787.054688 2201.085938 780.085938 C 2190.136719 773.617188 2176.695312 772.125 2165.25 777.101562 C 2131.90625 790.535156 2096.566406 797.503906 2060.234375 797.503906 C 1906.449219 797.503906 1781.527344 672.609375 1781.527344 518.855469 C 1781.527344 495.964844 1784.511719 473.574219 1789.988281 451.183594 C 1793.472656 437.25 1788.992188 422.324219 1778.539062 412.371094 C 1768.089844 402.421875 1752.660156 398.9375 1739.222656 403.414062 C 1576.972656 455.664062 1434.632812 550.699219 1324.640625 680.074219 C 1096.199219 695.496094 883.679688 794.515625 724.914062 961.207031 C 560.179688 1133.371094 470.09375 1357.78125 470.09375 1594.632812 C 470.09375 2099.679688 880.695312 2510.1875 1385.859375 2510.1875 C 1654.613281 2510.1875 1907.445312 2393.753906 2081.636719 2189.742188 C 2417.085938 2166.855469 2716.199219 1960.355469 2855.554688 1650.859375 C 2861.03125 1637.921875 2860.035156 1623.492188 2852.570312 1612.546875 Z M 2362.835938 1076.648438 C 2363.335938 1076.648438 2363.335938 1077.144531 2363.832031 1077.144531 C 2370.300781 1079.632812 2376.773438 1082.121094 2383.242188 1084.609375 C 2383.738281 1084.609375 2384.238281 1085.105469 2384.734375 1085.105469 C 2391.703125 1087.59375 2399.167969 1090.082031 2406.136719 1092.074219 C 2406.632812 1092.074219 2406.632812 1092.074219 2407.132812 1092.570312 C 2413.601562 1094.558594 2420.070312 1096.054688 2426.542969 1098.042969 C 2428.53125 1098.542969 2430.523438 1099.039062 2432.515625 1099.535156 C 2437.492188 1101.027344 2442.964844 1102.023438 2447.941406 1103.019531 C 2449.933594 1103.515625 2451.925781 1104.015625 2453.914062 1104.511719 C 2460.882812 1106.003906 2467.851562 1107.496094 2474.820312 1108.492188 C 2476.3125 1108.492188 2477.308594 1108.992188 2478.800781 1108.992188 C 2484.773438 1109.984375 2490.246094 1110.980469 2496.21875 1111.476562 C 2498.707031 1111.976562 2501.195312 1111.976562 2503.683594 1112.472656 C 2508.660156 1112.972656 2513.636719 1113.46875 2518.617188 1113.964844 C 2521.105469 1113.964844 2523.59375 1114.464844 2525.582031 1114.464844 C 2532.550781 1114.960938 2539.519531 1115.460938 2546.984375 1115.957031 C 2546.984375 1115.957031 2547.480469 1115.957031 2547.480469 1115.957031 C 2541.507812 1149.792969 2538.027344 1185.121094 2537.03125 1220.945312 C 2537.03125 1225.921875 2537.03125 1231.394531 2537.03125 1236.371094 C 2537.03125 1242.839844 2537.03125 1249.308594 2537.527344 1255.28125 C 2538.027344 1274.1875 2539.019531 1292.597656 2541.011719 1310.511719 C 2528.070312 1313.996094 2514.136719 1315.488281 2500.699219 1315.488281 C 2413.105469 1315.488281 2341.433594 1243.835938 2341.433594 1156.261719 C 2341.433594 1128.394531 2348.902344 1101.027344 2362.835938 1076.648438 Z M 1385.859375 2430.574219 C 924.992188 2430.574219 549.726562 2055.394531 549.726562 1594.632812 C 549.726562 1177.65625 854.316406 830.34375 1257.453125 768.644531 C 1185.285156 876.617188 1137.507812 996.535156 1116.605469 1123.421875 C 1100.675781 1119.441406 1084.253906 1116.953125 1067.332031 1116.953125 C 957.339844 1116.953125 868.253906 1206.019531 868.253906 1315.984375 C 868.253906 1425.953125 957.339844 1515.019531 1067.332031 1515.019531 C 1089.726562 1515.019531 1111.625 1511.039062 1132.53125 1504.074219 C 1179.3125 1685.691406 1280.347656 1845.414062 1417.210938 1965.332031 C 1396.808594 1997.179688 1385.859375 2034 1385.859375 2072.3125 C 1385.859375 2182.28125 1474.945312 2271.347656 1584.9375 2271.347656 C 1663.074219 2271.347656 1733.746094 2224.574219 1765.601562 2155.90625 C 1831.792969 2174.816406 1900.972656 2186.757812 1972.144531 2190.738281 C 1816.367188 2343.996094 1607.332031 2430.574219 1385.859375 2430.574219 Z M 1116.105469 1424.957031 C 1100.675781 1431.921875 1084.253906 1435.40625 1067.332031 1435.40625 C 1001.636719 1435.40625 947.882812 1381.667969 947.882812 1315.984375 C 947.882812 1250.304688 1001.636719 1196.566406 1067.332031 1196.566406 C 1080.769531 1196.566406 1094.207031 1199.054688 1106.648438 1203.035156 C 1104.660156 1227.414062 1103.664062 1251.300781 1103.664062 1276.179688 C 1103.664062 1326.933594 1108.144531 1376.691406 1116.105469 1424.957031 Z M 1465.488281 2072.3125 C 1465.488281 2051.914062 1470.464844 2032.507812 1479.921875 2015.089844 C 1544.125 2061.863281 1614.300781 2100.675781 1689.453125 2130.035156 C 1668.550781 2166.855469 1629.230469 2191.734375 1584.9375 2191.734375 C 1519.242188 2191.734375 1465.488281 2137.996094 1465.488281 2072.3125 Z M 2019.425781 2112.121094 C 1558.558594 2112.121094 1183.296875 1736.941406 1183.296875 1276.179688 C 1183.296875 1245.328125 1184.789062 1214.976562 1188.273438 1185.121094 C 1188.273438 1184.625 1188.273438 1184.125 1188.273438 1183.628906 C 1206.1875 1021.914062 1269.894531 872.140625 1368.4375 750.230469 C 1371.921875 747.246094 1374.910156 743.265625 1377.398438 739.285156 C 1463 637.28125 1572.992188 555.179688 1700.898438 502.933594 C 1700.402344 508.40625 1700.402344 514.378906 1700.402344 519.851562 C 1700.402344 717.390625 1861.15625 878.113281 2058.742188 878.113281 C 2089.101562 878.113281 2119.460938 874.128906 2148.328125 866.667969 C 2167.242188 930.855469 2213.03125 989.074219 2280.714844 1033.855469 C 2284.199219 1036.34375 2287.683594 1038.332031 2291.167969 1040.820312 C 2271.757812 1076.148438 2260.808594 1115.957031 2260.808594 1156.757812 C 2260.808594 1288.617188 2367.8125 1395.597656 2499.703125 1395.597656 C 2518.117188 1395.597656 2535.539062 1393.609375 2552.957031 1389.628906 C 2585.308594 1530.941406 2662.449219 1635.933594 2758.503906 1665.789062 C 2615.667969 1938.464844 2330.984375 2112.121094 2019.425781 2112.121094 Z M 1584.9375 1116.953125 C 1694.925781 1116.953125 1784.015625 1027.882812 1784.015625 917.917969 C 1784.015625 807.953125 1694.925781 718.882812 1584.9375 718.882812 C 1474.945312 718.882812 1385.859375 807.953125 1385.859375 917.917969 C 1385.859375 1027.882812 1474.945312 1116.953125 1584.9375 1116.953125 Z M 1584.9375 798.496094 C 1650.632812 798.496094 1704.382812 852.238281 1704.382812 917.917969 C 1704.382812 983.597656 1650.632812 1037.339844 1584.9375 1037.339844 C 1519.242188 1037.339844 1465.488281 983.597656 1465.488281 917.917969 C 1465.488281 852.238281 1519.242188 798.496094 1584.9375 798.496094 Z M 1425.671875 1236.371094 C 1315.683594 1236.371094 1226.59375 1325.441406 1226.59375 1435.40625 C 1226.59375 1545.371094 1315.683594 1634.4375 1425.671875 1634.4375 C 1535.664062 1634.4375 1624.753906 1545.371094 1624.753906 1435.40625 C 1624.753906 1325.441406 1535.664062 1236.371094 1425.671875 1236.371094 Z M 1425.671875 1554.824219 C 1359.976562 1554.824219 1306.226562 1501.085938 1306.226562 1435.40625 C 1306.226562 1369.722656 1359.976562 1315.984375 1425.671875 1315.984375 C 1491.371094 1315.984375 1545.121094 1369.722656 1545.121094 1435.40625 C 1545.121094 1501.085938 1491.371094 1554.824219 1425.671875 1554.824219 Z M 908.070312 1714.054688 C 798.078125 1714.054688 708.988281 1803.121094 708.988281 1913.085938 C 708.988281 2023.050781 798.078125 2112.121094 908.070312 2112.121094 C 1018.058594 2112.121094 1107.148438 2023.050781 1107.148438 1913.085938 C 1107.148438 1803.121094 1018.058594 1714.054688 908.070312 1714.054688 Z M 908.070312 2032.507812 C 842.371094 2032.507812 788.621094 1978.769531 788.621094 1913.085938 C 788.621094 1847.40625 842.371094 1793.667969 908.070312 1793.667969 C 973.765625 1793.667969 1027.515625 1847.40625 1027.515625 1913.085938 C 1027.515625 1978.769531 973.765625 2032.507812 908.070312 2032.507812 Z M 2301.621094 1435.40625 C 2191.628906 1435.40625 2102.542969 1524.472656 2102.542969 1634.4375 C 2102.542969 1744.40625 2191.628906 1833.472656 2301.621094 1833.472656 C 2411.609375 1833.472656 2500.699219 1744.40625 2500.699219 1634.4375 C 2500.699219 1524.472656 2411.609375 1435.40625 2301.621094 1435.40625 Z M 2301.621094 1753.859375 C 2235.921875 1753.859375 2182.171875 1700.121094 2182.171875 1634.4375 C 2182.171875 1568.757812 2235.921875 1515.019531 2301.621094 1515.019531 C 2367.316406 1515.019531 2421.066406 1568.757812 2421.066406 1634.4375 C 2421.066406 1700.121094 2367.316406 1753.859375 2301.621094 1753.859375 Z M 2022.910156 1196.566406 C 2088.605469 1196.566406 2142.355469 1142.828125 2142.355469 1077.144531 C 2142.355469 1011.464844 2088.605469 957.726562 2022.910156 957.726562 C 1957.214844 957.726562 1903.460938 1011.464844 1903.460938 1077.144531 C 1903.460938 1142.828125 1957.214844 1196.566406 2022.910156 1196.566406 Z M 2022.910156 1037.339844 C 2044.808594 1037.339844 2062.726562 1055.25 2062.726562 1077.144531 C 2062.726562 1099.039062 2044.808594 1116.953125 2022.910156 1116.953125 C 2001.011719 1116.953125 1983.09375 1099.039062 1983.09375 1077.144531 C 1983.09375 1055.25 2001.011719 1037.339844 2022.910156 1037.339844 Z M 1943.277344 1395.597656 C 1943.277344 1329.917969 1889.527344 1276.179688 1823.832031 1276.179688 C 1758.136719 1276.179688 1704.382812 1329.917969 1704.382812 1395.597656 C 1704.382812 1461.28125 1758.136719 1515.019531 1823.832031 1515.019531 C 1889.527344 1515.019531 1943.277344 1461.28125 1943.277344 1395.597656 Z M 1784.015625 1395.597656 C 1784.015625 1373.707031 1801.933594 1355.792969 1823.832031 1355.792969 C 1845.730469 1355.792969 1863.648438 1373.707031 1863.648438 1395.597656 C 1863.648438 1417.492188 1845.730469 1435.40625 1823.832031 1435.40625 C 1801.933594 1435.40625 1784.015625 1417.492188 1784.015625 1395.597656 Z M 1226.59375 2072.3125 C 1160.898438 2072.3125 1107.148438 2126.050781 1107.148438 2191.734375 C 1107.148438 2257.414062 1160.898438 2311.152344 1226.59375 2311.152344 C 1292.289062 2311.152344 1346.042969 2257.414062 1346.042969 2191.734375 C 1346.042969 2126.050781 1292.289062 2072.3125 1226.59375 2072.3125 Z M 1226.59375 2231.539062 C 1204.695312 2231.539062 1186.777344 2213.628906 1186.777344 2191.734375 C 1186.777344 2169.839844 1204.695312 2151.925781 1226.59375 2151.925781 C 1248.492188 2151.925781 1266.410156 2169.839844 1266.410156 2191.734375 C 1266.410156 2213.628906 1248.492188 2231.539062 1226.59375 2231.539062 Z M 828.4375 1554.824219 C 828.4375 1489.144531 774.6875 1435.40625 708.988281 1435.40625 C 643.292969 1435.40625 589.542969 1489.144531 589.542969 1554.824219 C 589.542969 1620.507812 643.292969 1674.246094 708.988281 1674.246094 C 774.6875 1674.246094 828.4375 1620.507812 828.4375 1554.824219 Z M 669.175781 1554.824219 C 669.175781 1532.933594 687.089844 1515.019531 708.988281 1515.019531 C 730.890625 1515.019531 748.804688 1532.933594 748.804688 1554.824219 C 748.804688 1576.71875 730.890625 1594.632812 708.988281 1594.632812 C 687.089844 1594.632812 669.175781 1576.71875 669.175781 1554.824219 Z M 1943.277344 1714.054688 C 1877.582031 1714.054688 1823.832031 1767.792969 1823.832031 1833.472656 C 1823.832031 1899.152344 1877.582031 1952.894531 1943.277344 1952.894531 C 2008.972656 1952.894531 2062.726562 1899.152344 2062.726562 1833.472656 C 2062.726562 1767.792969 2008.972656 1714.054688 1943.277344 1714.054688 Z M 1943.277344 1873.28125 C 1921.378906 1873.28125 1903.460938 1855.367188 1903.460938 1833.472656 C 1903.460938 1811.578125 1921.378906 1793.667969 1943.277344 1793.667969 C 1965.175781 1793.667969 1983.09375 1811.578125 1983.09375 1833.472656 C 1983.09375 1855.367188 1965.175781 1873.28125 1943.277344 1873.28125 Z M 1943.277344 1873.28125 " clip-rule="nonzero"/></clipPath><linearGradient x1="31.830515" gradientTransform="matrix(4.976968, 0, 0, 4.975842, 390.464116, 201.396891)" y1="479.830491" x2="484.180496" gradientUnits="userSpaceOnUse" y2="27.480519" id="68da2f8fef"><stop stop-opacity="1" stop-color="rgb(41.19873%, 85.499573%, 95.298767%)" offset="0"/><stop stop-opacity="1" stop-color="rgb(41.19873%, 85.499573%, 95.298767%)" offset="0.0625"/><stop stop-opacity="1" stop-color="rgb(41.19873%, 85.499573%, 95.298767%)" offset="0.09375"/><stop stop-opacity="1" stop-color="rgb(41.19873%, 85.499573%, 95.298767%)" offset="0.109375"/><stop stop-opacity="1" stop-color="rgb(41.19873%, 85.499573%, 95.298767%)" offset="0.117187"/><stop stop-opacity="1" stop-color="rgb(41.506958%, 85.145569%, 95.335388%)" offset="0.121094"/><stop stop-opacity="1" stop-color="rgb(41.815186%, 84.791565%, 95.373535%)" offset="0.125"/><stop stop-opacity="1" stop-color="rgb(42.234802%, 84.307861%, 95.423889%)" offset="0.128906"/><stop stop-opacity="1" stop-color="rgb(42.654419%, 83.824158%, 95.474243%)" offset="0.132812"/><stop stop-opacity="1" stop-color="rgb(43.074036%, 83.340454%, 95.524597%)" offset="0.136719"/><stop stop-opacity="1" stop-color="rgb(43.495178%, 82.858276%, 95.574951%)" offset="0.140625"/><stop stop-opacity="1" stop-color="rgb(43.914795%, 82.374573%, 95.625305%)" offset="0.144531"/><stop stop-opacity="1" stop-color="rgb(44.334412%, 81.892395%, 95.675659%)" offset="0.148437"/><stop stop-opacity="1" stop-color="rgb(44.754028%, 81.408691%, 95.726013%)" offset="0.152344"/><stop stop-opacity="1" stop-color="rgb(45.175171%, 80.924988%, 95.776367%)" offset="0.15625"/><stop stop-opacity="1" stop-color="rgb(45.594788%, 80.441284%, 95.826721%)" offset="0.160156"/><stop stop-opacity="1" stop-color="rgb(46.014404%, 79.959106%, 95.877075%)" offset="0.164062"/><stop stop-opacity="1" stop-color="rgb(46.434021%, 79.475403%, 95.927429%)" offset="0.167969"/><stop stop-opacity="1" stop-color="rgb(46.855164%, 78.993225%, 95.977783%)" offset="0.171875"/><stop stop-opacity="1" stop-color="rgb(47.27478%, 78.509521%, 96.028137%)" offset="0.175781"/><stop stop-opacity="1" stop-color="rgb(47.694397%, 78.025818%, 96.078491%)" offset="0.179688"/><stop stop-opacity="1" stop-color="rgb(48.114014%, 77.542114%, 96.128845%)" offset="0.183594"/><stop stop-opacity="1" stop-color="rgb(48.535156%, 77.059937%, 96.179199%)" offset="0.1875"/><stop stop-opacity="1" stop-color="rgb(48.954773%, 76.576233%, 96.229553%)" offset="0.191406"/><stop stop-opacity="1" stop-color="rgb(49.37439%, 76.092529%, 96.279907%)" offset="0.195312"/><stop stop-opacity="1" stop-color="rgb(49.794006%, 75.608826%, 96.330261%)" offset="0.199219"/><stop stop-opacity="1" stop-color="rgb(50.215149%, 75.126648%, 96.380615%)" offset="0.203125"/><stop stop-opacity="1" stop-color="rgb(50.634766%, 74.642944%, 96.430969%)" offset="0.207031"/><stop stop-opacity="1" stop-color="rgb(51.054382%, 74.160767%, 96.481323%)" offset="0.210937"/><stop stop-opacity="1" stop-color="rgb(51.473999%, 73.677063%, 96.531677%)" offset="0.214844"/><stop stop-opacity="1" stop-color="rgb(51.895142%, 73.193359%, 96.582031%)" offset="0.21875"/><stop stop-opacity="1" stop-color="rgb(52.314758%, 72.709656%, 96.632385%)" offset="0.222656"/><stop stop-opacity="1" stop-color="rgb(52.734375%, 72.227478%, 96.682739%)" offset="0.226562"/><stop stop-opacity="1" stop-color="rgb(53.153992%, 71.743774%, 96.733093%)" offset="0.230469"/><stop stop-opacity="1" stop-color="rgb(53.575134%, 71.261597%, 96.783447%)" offset="0.234375"/><stop stop-opacity="1" stop-color="rgb(53.994751%, 70.777893%, 96.833801%)" offset="0.238281"/><stop stop-opacity="1" stop-color="rgb(54.414368%, 70.294189%, 96.884155%)" offset="0.242187"/><stop stop-opacity="1" stop-color="rgb(54.833984%, 69.810486%, 96.934509%)" offset="0.246094"/><stop stop-opacity="1" stop-color="rgb(55.255127%, 69.328308%, 96.984863%)" offset="0.25"/><stop stop-opacity="1" stop-color="rgb(55.674744%, 68.844604%, 97.035217%)" offset="0.253906"/><stop stop-opacity="1" stop-color="rgb(56.09436%, 68.362427%, 97.085571%)" offset="0.257812"/><stop stop-opacity="1" stop-color="rgb(56.513977%, 67.878723%, 97.135925%)" offset="0.261719"/><stop stop-opacity="1" stop-color="rgb(56.93512%, 67.39502%, 97.186279%)" offset="0.265625"/><stop stop-opacity="1" stop-color="rgb(57.354736%, 66.911316%, 97.236633%)" offset="0.269531"/><stop stop-opacity="1" stop-color="rgb(57.774353%, 66.429138%, 97.286987%)" offset="0.273437"/><stop stop-opacity="1" stop-color="rgb(58.19397%, 65.945435%, 97.337341%)" offset="0.277344"/><stop stop-opacity="1" stop-color="rgb(58.615112%, 65.463257%, 97.387695%)" offset="0.28125"/><stop stop-opacity="1" stop-color="rgb(59.034729%, 64.979553%, 97.438049%)" offset="0.285156"/><stop stop-opacity="1" stop-color="rgb(59.454346%, 64.49585%, 97.488403%)" offset="0.289062"/><stop stop-opacity="1" stop-color="rgb(59.873962%, 64.012146%, 97.538757%)" offset="0.292969"/><stop stop-opacity="1" stop-color="rgb(60.295105%, 63.529968%, 97.589111%)" offset="0.296875"/><stop stop-opacity="1" stop-color="rgb(60.714722%, 63.046265%, 97.639465%)" offset="0.300781"/><stop stop-opacity="1" stop-color="rgb(61.134338%, 62.564087%, 97.689819%)" offset="0.304688"/><stop stop-opacity="1" stop-color="rgb(61.553955%, 62.080383%, 97.740173%)" offset="0.308594"/><stop stop-opacity="1" stop-color="rgb(61.975098%, 61.59668%, 97.790527%)" offset="0.3125"/><stop stop-opacity="1" stop-color="rgb(62.394714%, 61.112976%, 97.840881%)" offset="0.316406"/><stop stop-opacity="1" stop-color="rgb(62.814331%, 60.630798%, 97.891235%)" offset="0.320312"/><stop stop-opacity="1" stop-color="rgb(63.233948%, 60.147095%, 97.941589%)" offset="0.324219"/><stop stop-opacity="1" stop-color="rgb(63.65509%, 59.664917%, 97.991943%)" offset="0.328125"/><stop stop-opacity="1" stop-color="rgb(64.074707%, 59.181213%, 98.042297%)" offset="0.332031"/><stop stop-opacity="1" stop-color="rgb(64.494324%, 58.69751%, 98.092651%)" offset="0.335938"/><stop stop-opacity="1" stop-color="rgb(64.91394%, 58.213806%, 98.143005%)" offset="0.339844"/><stop stop-opacity="1" stop-color="rgb(65.333557%, 57.731628%, 98.193359%)" offset="0.34375"/><stop stop-opacity="1" stop-color="rgb(65.753174%, 57.247925%, 98.243713%)" offset="0.347656"/><stop stop-opacity="1" stop-color="rgb(66.174316%, 56.765747%, 98.294067%)" offset="0.351562"/><stop stop-opacity="1" stop-color="rgb(66.593933%, 56.282043%, 98.344421%)" offset="0.355469"/><stop stop-opacity="1" stop-color="rgb(67.01355%, 55.79834%, 98.394775%)" offset="0.359375"/><stop stop-opacity="1" stop-color="rgb(67.433167%, 55.314636%, 98.445129%)" offset="0.363281"/><stop stop-opacity="1" stop-color="rgb(67.854309%, 54.832458%, 98.495483%)" offset="0.367187"/><stop stop-opacity="1" stop-color="rgb(68.273926%, 54.348755%, 98.545837%)" offset="0.371094"/><stop stop-opacity="1" stop-color="rgb(68.693542%, 53.866577%, 98.596191%)" offset="0.375"/><stop stop-opacity="1" stop-color="rgb(69.113159%, 53.382874%, 98.646545%)" offset="0.378906"/><stop stop-opacity="1" stop-color="rgb(69.534302%, 52.89917%, 98.696899%)" offset="0.382812"/><stop stop-opacity="1" stop-color="rgb(69.953918%, 52.415466%, 98.747253%)" offset="0.386719"/><stop stop-opacity="1" stop-color="rgb(70.373535%, 51.933289%, 98.797607%)" offset="0.390625"/><stop stop-opacity="1" stop-color="rgb(70.793152%, 51.449585%, 98.847961%)" offset="0.394531"/><stop stop-opacity="1" stop-color="rgb(71.214294%, 50.967407%, 98.898315%)" offset="0.398437"/><stop stop-opacity="1" stop-color="rgb(71.633911%, 50.483704%, 98.948669%)" offset="0.402344"/><stop stop-opacity="1" stop-color="rgb(72.053528%, 50%, 98.999023%)" offset="0.40625"/><stop stop-opacity="1" stop-color="rgb(72.473145%, 49.516296%, 99.049377%)" offset="0.410156"/><stop stop-opacity="1" stop-color="rgb(72.894287%, 49.034119%, 99.099731%)" offset="0.414062"/><stop stop-opacity="1" stop-color="rgb(73.313904%, 48.550415%, 99.150085%)" offset="0.417969"/><stop stop-opacity="1" stop-color="rgb(73.733521%, 48.068237%, 99.200439%)" offset="0.421875"/><stop stop-opacity="1" stop-color="rgb(74.153137%, 47.584534%, 99.250793%)" offset="0.425781"/><stop stop-opacity="1" stop-color="rgb(74.57428%, 47.10083%, 99.301147%)" offset="0.429688"/><stop stop-opacity="1" stop-color="rgb(74.993896%, 46.617126%, 99.351501%)" offset="0.433594"/><stop stop-opacity="1" stop-color="rgb(75.413513%, 46.134949%, 99.401855%)" offset="0.4375"/><stop stop-opacity="1" stop-color="rgb(75.83313%, 45.651245%, 99.452209%)" offset="0.441406"/><stop stop-opacity="1" stop-color="rgb(76.254272%, 45.169067%, 99.502563%)" offset="0.445312"/><stop stop-opacity="1" stop-color="rgb(76.673889%, 44.685364%, 99.552917%)" offset="0.449219"/><stop stop-opacity="1" stop-color="rgb(77.093506%, 44.20166%, 99.603271%)" offset="0.453125"/><stop stop-opacity="1" stop-color="rgb(77.513123%, 43.717957%, 99.653625%)" offset="0.457031"/><stop stop-opacity="1" stop-color="rgb(77.934265%, 43.235779%, 99.703979%)" offset="0.460938"/><stop stop-opacity="1" stop-color="rgb(78.353882%, 42.752075%, 99.754333%)" offset="0.464844"/><stop stop-opacity="1" stop-color="rgb(78.773499%, 42.269897%, 99.804688%)" offset="0.46875"/><stop stop-opacity="1" stop-color="rgb(79.193115%, 41.786194%, 99.855042%)" offset="0.472656"/><stop stop-opacity="1" stop-color="rgb(79.614258%, 41.30249%, 99.905396%)" offset="0.476563"/><stop stop-opacity="1" stop-color="rgb(80.021667%, 40.847778%, 99.919128%)" offset="0.480469"/><stop stop-opacity="1" stop-color="rgb(80.430603%, 40.393066%, 99.934387%)" offset="0.484375"/><stop stop-opacity="1" stop-color="rgb(80.670166%, 40.339661%, 99.435425%)" offset="0.488281"/><stop stop-opacity="1" stop-color="rgb(80.909729%, 40.287781%, 98.936462%)" offset="0.492187"/><stop stop-opacity="1" stop-color="rgb(81.149292%, 40.234375%, 98.4375%)" offset="0.496094"/><stop stop-opacity="1" stop-color="rgb(81.388855%, 40.182495%, 97.938538%)" offset="0.5"/><stop stop-opacity="1" stop-color="rgb(81.628418%, 40.129089%, 97.439575%)" offset="0.503906"/><stop stop-opacity="1" stop-color="rgb(81.867981%, 40.077209%, 96.940613%)" offset="0.507812"/><stop stop-opacity="1" stop-color="rgb(82.107544%, 40.023804%, 96.44165%)" offset="0.511719"/><stop stop-opacity="1" stop-color="rgb(82.347107%, 39.971924%, 95.942688%)" offset="0.515625"/><stop stop-opacity="1" stop-color="rgb(82.58667%, 39.918518%, 95.443726%)" offset="0.519531"/><stop stop-opacity="1" stop-color="rgb(82.827759%, 39.866638%, 94.944763%)" offset="0.523438"/><stop stop-opacity="1" stop-color="rgb(83.067322%, 39.813232%, 94.445801%)" offset="0.527344"/><stop stop-opacity="1" stop-color="rgb(83.306885%, 39.761353%, 93.946838%)" offset="0.53125"/><stop stop-opacity="1" stop-color="rgb(83.546448%, 39.707947%, 93.447876%)" offset="0.535156"/><stop stop-opacity="1" stop-color="rgb(83.786011%, 39.656067%, 92.948914%)" offset="0.539062"/><stop stop-opacity="1" stop-color="rgb(84.025574%, 39.602661%, 92.449951%)" offset="0.542969"/><stop stop-opacity="1" stop-color="rgb(84.265137%, 39.550781%, 91.950989%)" offset="0.546875"/><stop stop-opacity="1" stop-color="rgb(84.5047%, 39.497375%, 91.452026%)" offset="0.550781"/><stop stop-opacity="1" stop-color="rgb(84.744263%, 39.445496%, 90.95459%)" offset="0.554687"/><stop stop-opacity="1" stop-color="rgb(84.983826%, 39.39209%, 90.455627%)" offset="0.558594"/><stop stop-opacity="1" stop-color="rgb(85.223389%, 39.34021%, 89.956665%)" offset="0.5625"/><stop stop-opacity="1" stop-color="rgb(85.462952%, 39.286804%, 89.457703%)" offset="0.566406"/><stop stop-opacity="1" stop-color="rgb(85.702515%, 39.234924%, 88.95874%)" offset="0.570312"/><stop stop-opacity="1" stop-color="rgb(85.942078%, 39.183044%, 88.459778%)" offset="0.574219"/><stop stop-opacity="1" stop-color="rgb(86.183167%, 39.131165%, 87.960815%)" offset="0.578125"/><stop stop-opacity="1" stop-color="rgb(86.422729%, 39.077759%, 87.461853%)" offset="0.582031"/><stop stop-opacity="1" stop-color="rgb(86.662292%, 39.025879%, 86.962891%)" offset="0.585937"/><stop stop-opacity="1" stop-color="rgb(86.901855%, 38.972473%, 86.463928%)" offset="0.589844"/><stop stop-opacity="1" stop-color="rgb(87.141418%, 38.920593%, 85.964966%)" offset="0.59375"/><stop stop-opacity="1" stop-color="rgb(87.380981%, 38.867188%, 85.466003%)" offset="0.597656"/><stop stop-opacity="1" stop-color="rgb(87.620544%, 38.815308%, 84.967041%)" offset="0.601562"/><stop stop-opacity="1" stop-color="rgb(87.860107%, 38.761902%, 84.468079%)" offset="0.605469"/><stop stop-opacity="1" stop-color="rgb(88.09967%, 38.710022%, 83.969116%)" offset="0.609375"/><stop stop-opacity="1" stop-color="rgb(88.339233%, 38.656616%, 83.470154%)" offset="0.613281"/><stop stop-opacity="1" stop-color="rgb(88.578796%, 38.604736%, 82.971191%)" offset="0.617188"/><stop stop-opacity="1" stop-color="rgb(88.818359%, 38.551331%, 82.472229%)" offset="0.621094"/><stop stop-opacity="1" stop-color="rgb(89.057922%, 38.499451%, 81.973267%)" offset="0.625"/><stop stop-opacity="1" stop-color="rgb(89.297485%, 38.446045%, 81.474304%)" offset="0.628906"/><stop stop-opacity="1" stop-color="rgb(89.538574%, 38.394165%, 80.975342%)" offset="0.632812"/><stop stop-opacity="1" stop-color="rgb(89.778137%, 38.340759%, 80.476379%)" offset="0.636719"/><stop stop-opacity="1" stop-color="rgb(90.0177%, 38.288879%, 79.977417%)" offset="0.640625"/><stop stop-opacity="1" stop-color="rgb(90.257263%, 38.235474%, 79.478455%)" offset="0.644531"/><stop stop-opacity="1" stop-color="rgb(90.496826%, 38.183594%, 78.979492%)" offset="0.648438"/><stop stop-opacity="1" stop-color="rgb(90.736389%, 38.130188%, 78.48053%)" offset="0.652344"/><stop stop-opacity="1" stop-color="rgb(90.975952%, 38.078308%, 77.981567%)" offset="0.65625"/><stop stop-opacity="1" stop-color="rgb(91.215515%, 38.024902%, 77.482605%)" offset="0.660156"/><stop stop-opacity="1" stop-color="rgb(91.455078%, 37.973022%, 76.985168%)" offset="0.664063"/><stop stop-opacity="1" stop-color="rgb(91.694641%, 37.919617%, 76.486206%)" offset="0.667969"/><stop stop-opacity="1" stop-color="rgb(91.934204%, 37.867737%, 75.987244%)" offset="0.671875"/><stop stop-opacity="1" stop-color="rgb(92.173767%, 37.815857%, 75.488281%)" offset="0.675781"/><stop stop-opacity="1" stop-color="rgb(92.41333%, 37.763977%, 74.989319%)" offset="0.679688"/><stop stop-opacity="1" stop-color="rgb(92.652893%, 37.710571%, 74.490356%)" offset="0.683594"/><stop stop-opacity="1" stop-color="rgb(92.893982%, 37.658691%, 73.991394%)" offset="0.6875"/><stop stop-opacity="1" stop-color="rgb(93.133545%, 37.605286%, 73.492432%)" offset="0.691406"/><stop stop-opacity="1" stop-color="rgb(93.373108%, 37.553406%, 72.993469%)" offset="0.695313"/><stop stop-opacity="1" stop-color="rgb(93.612671%, 37.5%, 72.494507%)" offset="0.699219"/><stop stop-opacity="1" stop-color="rgb(93.852234%, 37.44812%, 71.995544%)" offset="0.703125"/><stop stop-opacity="1" stop-color="rgb(94.091797%, 37.394714%, 71.496582%)" offset="0.707031"/><stop stop-opacity="1" stop-color="rgb(94.33136%, 37.342834%, 70.99762%)" offset="0.710938"/><stop stop-opacity="1" stop-color="rgb(94.570923%, 37.289429%, 70.498657%)" offset="0.714844"/><stop stop-opacity="1" stop-color="rgb(94.810486%, 37.237549%, 69.999695%)" offset="0.71875"/><stop stop-opacity="1" stop-color="rgb(95.050049%, 37.184143%, 69.500732%)" offset="0.722656"/><stop stop-opacity="1" stop-color="rgb(95.289612%, 37.132263%, 69.00177%)" offset="0.726562"/><stop stop-opacity="1" stop-color="rgb(95.529175%, 37.078857%, 68.502808%)" offset="0.730469"/><stop stop-opacity="1" stop-color="rgb(95.768738%, 37.026978%, 68.003845%)" offset="0.734375"/><stop stop-opacity="1" stop-color="rgb(96.008301%, 36.973572%, 67.504883%)" offset="0.738281"/><stop stop-opacity="1" stop-color="rgb(96.24939%, 36.921692%, 67.00592%)" offset="0.742188"/><stop stop-opacity="1" stop-color="rgb(96.488953%, 36.868286%, 66.506958%)" offset="0.746094"/><stop stop-opacity="1" stop-color="rgb(96.728516%, 36.816406%, 66.007996%)" offset="0.75"/><stop stop-opacity="1" stop-color="rgb(96.968079%, 36.763%, 65.509033%)" offset="0.753906"/><stop stop-opacity="1" stop-color="rgb(97.207642%, 36.711121%, 65.010071%)" offset="0.757812"/><stop stop-opacity="1" stop-color="rgb(97.447205%, 36.657715%, 64.511108%)" offset="0.761719"/><stop stop-opacity="1" stop-color="rgb(97.686768%, 36.605835%, 64.012146%)" offset="0.765625"/><stop stop-opacity="1" stop-color="rgb(97.926331%, 36.553955%, 63.513184%)" offset="0.769531"/><stop stop-opacity="1" stop-color="rgb(98.165894%, 36.502075%, 63.014221%)" offset="0.773438"/><stop stop-opacity="1" stop-color="rgb(98.405457%, 36.448669%, 62.515259%)" offset="0.777344"/><stop stop-opacity="1" stop-color="rgb(98.64502%, 36.39679%, 62.017822%)" offset="0.78125"/><stop stop-opacity="1" stop-color="rgb(98.884583%, 36.343384%, 61.51886%)" offset="0.785156"/><stop stop-opacity="1" stop-color="rgb(99.124146%, 36.291504%, 61.019897%)" offset="0.789062"/><stop stop-opacity="1" stop-color="rgb(99.363708%, 36.238098%, 60.520935%)" offset="0.792969"/><stop stop-opacity="1" stop-color="rgb(99.604797%, 36.186218%, 60.021973%)" offset="0.796875"/><stop stop-opacity="1" stop-color="rgb(99.801636%, 36.141968%, 59.609985%)" offset="0.800781"/><stop stop-opacity="1" stop-color="rgb(100%, 36.099243%, 59.199524%)" offset="0.804687"/><stop stop-opacity="1" stop-color="rgb(100%, 36.099243%, 59.199524%)" offset="0.8125"/><stop stop-opacity="1" stop-color="rgb(100%, 36.099243%, 59.199524%)" offset="0.875"/><stop stop-opacity="1" stop-color="rgb(100%, 36.099243%, 59.199524%)" offset="1"/></linearGradient><clipPath id="4f2c954ce7"><path d="M 2730 173 L 3077 173 L 3077 487 L 2730 487 Z M 2730 173 " clip-rule="nonzero"/></clipPath><clipPath id="dfed5adb60"><path d="M 3281.804688 516.683594 L 2756.203125 1008.761719 L 2074.980469 281.128906 L 2600.585938 -210.949219 Z M 3281.804688 516.683594 " clip-rule="nonzero"/></clipPath><clipPath id="eacc92aeb5"><path d="M 3281.804688 516.683594 L 2756.203125 1008.761719 L 2074.980469 281.128906 L 2600.585938 -210.949219 Z M 3281.804688 516.683594 " clip-rule="nonzero"/></clipPath><clipPath id="867c9efeb7"><path d="M 2551 581 L 2722 581 L 2722 736 L 2551 736 Z M 2551 581 " clip-rule="nonzero"/></clipPath><clipPath id="4bf9889d14"><path d="M 3281.804688 516.683594 L 2756.203125 1008.761719 L 2074.980469 281.128906 L 2600.585938 -210.949219 Z M 3281.804688 516.683594 " clip-rule="nonzero"/></clipPath><clipPath id="b44cdb9761"><path d="M 3281.804688 516.683594 L 2756.203125 1008.761719 L 2074.980469 281.128906 L 2600.585938 -210.949219 Z M 3281.804688 516.683594 " clip-rule="nonzero"/></clipPath><clipPath id="409366ffff"><path d="M 2246 76 L 2582 76 L 2582 439 L 2246 439 Z M 2246 76 " clip-rule="nonzero"/></clipPath><clipPath id="3ad161b075"><path d="M 3281.804688 516.683594 L 2756.203125 1008.761719 L 2074.980469 281.128906 L 2600.585938 -210.949219 Z M 3281.804688 516.683594 " clip-rule="nonzero"/></clipPath><clipPath id="e0f7de0cd9"><path d="M 3281.804688 516.683594 L 2756.203125 1008.761719 L 2074.980469 281.128906 L 2600.585938 -210.949219 Z M 3281.804688 516.683594 " clip-rule="nonzero"/></clipPath><clipPath id="b3d5ec2d24"><path d="M 2806 1073 L 2946 1073 L 2946 1210 L 2806 1210 Z M 2806 1073 " clip-rule="nonzero"/></clipPath><clipPath id="50701d042c"><path d="M 2738.027344 1245.207031 L 2678.234375 955.054688 L 3080.042969 872.253906 L 3139.835938 1162.40625 Z M 2738.027344 1245.207031 " clip-rule="nonzero"/></clipPath><clipPath id="cf05996103"><path d="M 2738.027344 1245.207031 L 2678.234375 955.054688 L 3080.042969 872.253906 L 3139.835938 1162.40625 Z M 2738.027344 1245.207031 " clip-rule="nonzero"/></clipPath><clipPath id="4579def3c3"><path d="M 2788 949 L 2857 949 L 2857 1017 L 2788 1017 Z M 2788 949 " clip-rule="nonzero"/></clipPath><clipPath id="1e46ba6aa1"><path d="M 2738.027344 1245.207031 L 2678.234375 955.054688 L 3080.042969 872.253906 L 3139.835938 1162.40625 Z M 2738.027344 1245.207031 " clip-rule="nonzero"/></clipPath><clipPath id="5d6bbaf328"><path d="M 2738.027344 1245.207031 L 2678.234375 955.054688 L 3080.042969 872.253906 L 3139.835938 1162.40625 Z M 2738.027344 1245.207031 " clip-rule="nonzero"/></clipPath><clipPath id="0b40d0d40c"><path d="M 2957 934 L 3100 934 L 3100 1085 L 2957 1085 Z M 2957 934 " clip-rule="nonzero"/></clipPath><clipPath id="b6d1d91c38"><path d="M 2738.027344 1245.207031 L 2678.234375 955.054688 L 3080.042969 872.253906 L 3139.835938 1162.40625 Z M 2738.027344 1245.207031 " clip-rule="nonzero"/></clipPath><clipPath id="716f552d0c"><path d="M 2738.027344 1245.207031 L 2678.234375 955.054688 L 3080.042969 872.253906 L 3139.835938 1162.40625 Z M 2738.027344 1245.207031 " clip-rule="nonzero"/></clipPath></defs><g clip-path="url(#cf340004d2)"><g clip-path="url(#d323182195)"><path fill="url(#68da2f8fef)" d="M 470.09375 398.9375 L 470.09375 2510.1875 L 2861.03125 2510.1875 L 2861.03125 398.9375 Z M 470.09375 398.9375 " fill-rule="nonzero"/></g></g><g clip-path="url(#4f2c954ce7)"><g clip-path="url(#dfed5adb60)"><g clip-path="url(#eacc92aeb5)"><path fill="#ff66c4" d="M 2977.714844 191.855469 C 2977.714844 191.855469 2832.121094 88.761719 2731.222656 365.394531 C 2731.222656 365.394531 2705.308594 504.703125 2893.484375 480.914062 C 2893.484375 480.914062 3241.738281 553.84375 2977.714844 191.855469 Z M 2977.714844 191.855469 " fill-opacity="1" fill-rule="nonzero"/></g></g></g><g clip-path="url(#867c9efeb7)"><g clip-path="url(#4bf9889d14)"><g clip-path="url(#b44cdb9761)"><path fill="#ff66c4" d="M 2673.277344 590.753906 C 2673.277344 590.753906 2602.050781 540.257812 2552.554688 675.828125 C 2552.554688 675.828125 2539.851562 744.1875 2632.046875 732.5625 C 2632.046875 732.5625 2802.652344 768.207031 2673.277344 590.753906 Z M 2673.277344 590.753906 " fill-opacity="1" fill-rule="nonzero"/></g></g></g><g clip-path="url(#409366ffff)"><g clip-path="url(#3ad161b075)"><g clip-path="url(#e0f7de0cd9)"><path fill="#ff66c4" d="M 2522.027344 327.375 C 2522.027344 327.375 2671.316406 56.738281 2497.367188 77.699219 C 2323.707031 98.566406 2246.890625 120.421875 2246.890625 120.421875 C 2246.890625 120.421875 2298.980469 520.382812 2410.558594 423.785156 C 2522.027344 327.375 2522.027344 327.375 2522.027344 327.375 Z M 2522.027344 327.375 " fill-opacity="1" fill-rule="nonzero"/></g></g></g><g clip-path="url(#b3d5ec2d24)"><g clip-path="url(#50701d042c)"><g clip-path="url(#cf05996103)"><path fill="#ff66c4" d="M 2917.398438 1208.25 C 2917.398438 1208.25 2984.875 1179.292969 2909.449219 1084.46875 C 2909.449219 1084.46875 2866.113281 1045.453125 2834.027344 1116.605469 C 2834.027344 1116.605469 2733.59375 1223.164062 2917.398438 1208.25 Z M 2917.398438 1208.25 " fill-opacity="1" fill-rule="nonzero"/></g></g></g><g clip-path="url(#4579def3c3)"><g clip-path="url(#1e46ba6aa1)"><g clip-path="url(#5d6bbaf328)"><path fill="#ff66c4" d="M 2842.789062 1015.730469 C 2842.789062 1015.730469 2875.820312 1001.578125 2838.867188 955.089844 C 2838.867188 955.089844 2817.601562 935.949219 2801.871094 970.804688 C 2801.871094 970.804688 2752.695312 1023.023438 2842.789062 1015.730469 Z M 2842.789062 1015.730469 " fill-opacity="1" fill-rule="nonzero"/></g></g></g><g clip-path="url(#0b40d0d40c)"><g clip-path="url(#b6d1d91c38)"><g clip-path="url(#716f552d0c)"><path fill="#ff66c4" d="M 2967.746094 1019.214844 C 2967.746094 1019.214844 3030.667969 1129.738281 3060.691406 1064.1875 C 3090.683594 998.757812 3099.515625 967.101562 3099.515625 967.101562 C 3099.515625 967.101562 2947.921875 899.480469 2957.855469 959.386719 C 2967.746094 1019.214844 2967.746094 1019.214844 2967.746094 1019.214844 Z M 2967.746094 1019.214844 " fill-opacity="1" fill-rule="nonzero"/></g></g></g></svg>